HIERARCHY
ROOT Hips
{
	OFFSET 0.000000 0.000000 0.000000
	CHANNELS 6 Xposition Yposition Zposition Zrotation Yrotation Xrotation 
	JOINT LHipJoint
	{
		OFFSET 0.000000 0.000000 0.000000
		CHANNELS 3 Zrotation Yrotation Xrotation
		JOINT LeftUpLeg
		{
			OFFSET 1.363060 -1.794630 0.839290
			CHANNELS 3 Zrotation Yrotation Xrotation
			JOINT LeftLeg
			{
				OFFSET 2.448110 -6.726130 0.000000
				CHANNELS 3 Zrotation Yrotation Xrotation
				JOINT LeftFoot
				{
					OFFSET 2.562200 -7.039590 0.000000
					CHANNELS 3 Zrotation Yrotation Xrotation
					JOINT LeftToeBase
					{
						OFFSET 0.157640 -0.433110 2.322550
						CHANNELS 3 Zrotation Yrotation Xrotation
						End Site
						{
							OFFSET 0.000000 0.000000 0.000000
						}
					}
				}
			}
		}
	}
	JOINT RHipJoint
	{
		OFFSET 0.000000 0.000000 0.000000
		CHANNELS 3 Zrotation Yrotation Xrotation
		JOINT RightUpLeg
		{
			OFFSET -1.305520 -1.794630 0.839290
			CHANNELS 3 Zrotation Yrotation Xrotation
			JOINT RightLeg
			{
				OFFSET -2.542530 -6.985550 0.000000
				CHANNELS 3 Zrotation Yrotation Xrotation
				JOINT RightFoot
				{
					OFFSET -2.568260 -7.056230 0.000000
					CHANNELS 3 Zrotation Yrotation Xrotation
					JOINT RightToeBase
					{
						OFFSET -0.164730 -0.452590 2.363150
						CHANNELS 3 Zrotation Yrotation Xrotation
						End Site
						{
							OFFSET 0.000000 0.000000 0.000000
						}
					}
				}
			}
		}
	}
	JOINT LowerBack
	{
		OFFSET 0.000000 0.000000 0.000000
		CHANNELS 3 Zrotation Yrotation Xrotation
		JOINT Spine
		{
			OFFSET 0.028270 2.035590 -0.193380
			CHANNELS 3 Zrotation Yrotation Xrotation
			JOINT Spine1
			{
				OFFSET 0.056720 2.048850 -0.042750
				CHANNELS 3 Zrotation Yrotation Xrotation
				JOINT Neck
				{
					OFFSET 0.000000 0.000000 0.000000
					CHANNELS 3 Zrotation Yrotation Xrotation
					JOINT Neck1
					{
						OFFSET -0.054170 1.746240 0.172020
						CHANNELS 3 Zrotation Yrotation Xrotation
						JOINT Head
						{
							OFFSET 0.104070 1.761360 -0.123970
							CHANNELS 3 Zrotation Yrotation Xrotation
							End Site
							{
								OFFSET 0.000000 0.000000 0.000000
							}
						}
					}
				}
				JOINT LeftShoulder
				{
					OFFSET 0.000000 0.000000 0.000000
					CHANNELS 3 Zrotation Yrotation Xrotation
					JOINT LeftArm
					{
						OFFSET 3.362410 1.200890 -0.311210
						CHANNELS 3 Zrotation Yrotation Xrotation
						JOINT LeftForeArm
						{
							OFFSET 4.983000 -0.000000 -0.000000
							CHANNELS 3 Zrotation Yrotation Xrotation
							JOINT LeftHand
							{
								OFFSET 3.483560 -0.000000 -0.000000
								CHANNELS 3 Zrotation Yrotation Xrotation
								JOINT LeftFingerBase
								{
									OFFSET 0.000000 0.000000 0.000000
									CHANNELS 3 Zrotation Yrotation Xrotation
									JOINT LeftHandIndex1
									{
										OFFSET 0.715260 -0.000000 -0.000000
										CHANNELS 3 Zrotation Yrotation Xrotation
										End Site
										{
											OFFSET 0.000000 0.000000 0.000000
										}
									}
								}
								JOINT LThumb
								{
									OFFSET 0.000000 0.000000 0.000000
									CHANNELS 3 Zrotation Yrotation Xrotation
									End Site
									{
										OFFSET 0.000000 0.000000 0.000000
									}
								}
							}
						}
					}
				}
				JOINT RightShoulder
				{
					OFFSET 0.000000 0.000000 0.000000
					CHANNELS 3 Zrotation Yrotation Xrotation
					JOINT RightArm
					{
						OFFSET -3.136600 1.374050 -0.404650
						CHANNELS 3 Zrotation Yrotation Xrotation
						JOINT RightForeArm
						{
							OFFSET -5.241900 -0.000000 -0.000000
							CHANNELS 3 Zrotation Yrotation Xrotation
							JOINT RightHand
							{
								OFFSET -3.444170 -0.000000 -0.000000
								CHANNELS 3 Zrotation Yrotation Xrotation
								JOINT RightFingerBase
								{
									OFFSET 0.000000 0.000000 0.000000
									CHANNELS 3 Zrotation Yrotation Xrotation
									JOINT RightHandIndex1
									{
										OFFSET -0.622530 -0.000000 -0.000000
										CHANNELS 3 Zrotation Yrotation Xrotation
										End Site
										{
											OFFSET 0.000000 0.000000 0.000000
										}
									}
								}
								JOINT RThumb
								{
									OFFSET 0.000000 0.000000 0.000000
									CHANNELS 3 Zrotation Yrotation Xrotation
									End Site
									{
										OFFSET 0.000000 0.000000 0.000000
									}
								}
							}
						}
					}
				}
			}
		}
	}
}
MOTION
Frames: 7
Frame Time: 0.008333
49.623895 16.946468 4.414696 171.429917 -6.477776 -174.325364 2.488318 -1.972408 -2.884970 -41.719056 8.254711 8.872602 -1.581435 3.900053 7.040728 1.131386 -8.787860 -15.975934 0.003900 0.405200 1.113400 -3.590844 1.549209 -1.964827 -1.010603 8.575505 -34.546275 -6.784530 -15.662899 48.063783 -0.635198 -0.455757 -16.323850 -0.235700 3.124800 -8.626300 -10.424288 -0.361968 14.979380 -0.056459 -2.468258 -0.251129 1.527631 -1.965794 4.946168 -0.547420 5.057865 -18.506421 1.189197 5.721439 16.684572 -2.881400 2.029500 15.818400 6.384876 -1.315621 -0.093267 -78.557976 -12.652057 56.199446 54.648711 -54.791392 -30.681579 -0.842727 0.337635 -23.102396 34.486328 -23.004361 -15.727600 -7.125000 0.000000 0.000000 3.591400 1.924400 -3.475700 -4.484042 2.321171 2.521929 76.282104 -33.474088 60.206254 -39.326892 49.155497 -15.139040 0.881855 -2.117584 -29.969349 -32.910632 -36.159644 19.505800 7.125000 0.000000 0.000000 -0.324700 -68.190600 0.180800 
49.656876 16.908688 4.153602 171.226106 -7.417349 -174.138838 2.499675 -1.916405 -2.907724 -40.908741 9.465720 9.694825 -1.479589 3.777686 6.823132 1.057261 -11.333361 -14.575012 0.105800 2.097300 5.774700 -3.544700 1.415017 -1.810676 -0.980248 7.846599 -35.649489 -6.108843 -14.839179 44.911641 -0.653890 -0.357211 -16.455668 -0.435900 4.236700 -11.743500 -10.776521 -0.515421 14.584439 -0.087882 -2.679223 -0.275714 1.569065 -2.065635 5.103357 -0.196506 5.013432 -18.695292 1.164505 5.543259 16.848047 -3.023000 2.009900 15.994100 6.349378 -1.314616 -0.107707 -77.369327 -14.396029 55.888710 56.722205 -55.427394 -32.399453 -0.847199 0.350043 -22.330006 34.795528 -23.103877 -15.965800 -7.125000 0.000000 0.000000 3.762500 1.719900 -3.655800 -4.383019 2.377519 2.548544 76.006519 -35.704411 61.176434 -40.438985 49.763397 -15.810306 0.915642 -2.073191 -30.360603 -32.697398 -35.879272 19.257900 7.125000 0.000000 0.000000 -0.225200 -67.856900 0.123700 
49.680361 16.861309 3.893019 170.856578 -8.190806 -174.039312 2.530093 -1.858418 -2.947127 -40.303238 10.853131 10.614243 -1.391172 3.622103 6.508969 0.926989 -13.298936 -13.162637 0.232400 3.102600 8.564400 -3.489038 1.295029 -1.673253 -1.123404 7.224491 -36.506229 -5.485571 -13.981201 41.798660 -0.662345 -0.127878 -16.447835 -0.671100 5.238700 -14.590700 -11.281125 -0.620555 14.248938 -0.149521 -2.861071 -0.268898 1.628500 -2.163547 5.280811 -0.163681 5.028937 -18.613064 1.330314 5.555376 16.837322 -2.926500 2.054400 15.919200 6.287931 -1.306532 -0.101622 -76.083849 -15.969529 55.483802 58.872464 -56.033906 -34.202649 -0.855524 0.354210 -21.734117 35.230106 -23.137278 -16.236000 -7.125000 0.000000 0.000000 4.024600 1.559000 -3.923400 -4.299634 2.413657 2.566744 75.445609 -37.806801 62.543778 -41.732906 50.462038 -16.618546 0.942994 -2.025965 -30.757388 -32.747524 -35.803912 19.286900 7.125000 0.000000 0.000000 -0.376100 -67.821300 0.206300 
49.696392 16.809233 3.629679 170.602346 -8.897300 -174.101990 2.568443 -1.795754 -2.997058 -40.306710 10.776042 12.327732 -1.410944 3.449333 6.157665 0.945358 -12.877783 -13.405728 0.121900 2.251100 6.200200 -3.464769 1.190708 -1.570649 -1.044818 6.452599 -37.087841 -4.937723 -13.116176 38.774899 -0.626001 0.461703 -15.954125 -0.800200 5.709500 -15.943800 -11.625762 -0.708890 14.016995 -0.202954 -3.007209 -0.234397 1.677532 -2.247830 5.474720 -0.340562 4.948550 -18.449448 1.530392 5.498644 16.737449 -2.758100 2.047800 15.726100 6.218426 -1.297312 -0.083564 -74.710652 -17.470598 54.974838 61.055990 -56.594865 -36.052815 -0.860929 0.354973 -20.666188 35.652875 -22.776963 -16.253900 -7.125000 0.000000 0.000000 4.359700 1.860200 -4.228200 -4.223215 2.436850 2.566745 74.636859 -39.798984 64.097855 -43.132513 51.182681 -17.505308 0.976773 -1.971325 -31.034593 -32.508460 -35.650840 19.092300 7.125000 0.000000 0.000000 -0.175900 -67.623700 0.095700 
49.711913 16.754707 3.360417 170.325913 -9.542268 -174.171345 2.605394 -1.738992 -3.041974 -40.067158 11.095317 13.824969 -1.384589 3.308460 5.896693 0.895971 -13.635605 -12.966634 0.157300 2.555600 7.043900 -3.439515 1.094931 -1.481300 -0.942797 5.616883 -37.561347 -4.461780 -12.251198 35.875528 -0.546669 1.157736 -15.036823 -0.780300 5.639500 -15.742000 -11.987077 -0.799717 13.731169 -0.258628 -3.149563 -0.191167 1.694230 -2.335357 5.725097 -0.357953 4.946023 -18.417507 1.586253 5.508707 16.748851 -2.715600 2.065100 15.682600 6.159593 -1.291989 -0.064510 -73.635745 -18.973526 53.817703 62.014621 -56.813868 -36.893643 -0.848939 0.387536 -17.881575 35.606387 -22.642018 -16.142900 -7.125000 0.000000 0.000000 4.364800 2.036500 -4.219300 -4.139832 2.453517 2.552493 73.734773 -41.646217 65.703528 -44.465710 51.829097 -18.369637 0.995034 -1.924161 -31.095643 -32.477358 -35.430227 19.001700 7.125000 0.000000 0.000000 -0.298700 -67.414500 0.161100 
49.726617 16.695381 3.091155 169.890549 -10.040965 -174.242472 2.641653 -1.686498 -3.084101 -39.892711 11.671690 15.084491 -1.339636 3.238826 5.806920 0.809777 -14.773512 -12.283406 0.203800 2.907100 8.020200 -3.414117 1.009866 -1.394827 -1.057015 5.083114 -37.855556 -4.049755 -11.415871 33.163700 -0.462218 1.842350 -14.192421 -0.566800 4.821800 -13.400900 -12.624165 -0.816313 13.475294 -0.305341 -3.225829 -0.164781 1.880420 -2.408102 5.925015 -0.318126 4.987631 -18.505225 1.546511 5.562436 16.912514 -2.760200 2.086300 15.818000 6.122765 -1.292137 -0.048548 -72.846523 -20.202310 53.150963 63.264895 -57.098569 -37.968561 -0.863996 0.383379 -17.232226 36.588818 -22.365963 -16.526600 -7.125000 0.000000 0.000000 5.024000 2.077700 -4.857400 -4.049512 2.474708 2.512500 72.652226 -43.420320 67.402345 -45.798907 52.420415 -19.257053 0.999670 -1.883553 -30.942053 -32.706088 -35.283289 19.116700 7.125000 0.000000 0.000000 -0.738200 -67.356800 0.397100 
49.741423 16.635239 2.821586 169.611926 -10.450813 -174.419964 2.693285 -1.633328 -3.119309 -39.807632 11.739703 16.558132 -1.330417 3.185939 5.776901 0.785469 -15.032493 -12.123461 0.182100 2.748300 7.578800 -3.466971 0.937263 -1.337104 -0.923156 4.858661 -37.883225 -3.714555 -10.666815 30.713599 -0.384395 2.341808 -13.468631 -0.386000 3.989900 -11.048300 -13.181674 -0.779417 13.342157 -0.335110 -3.229969 -0.147158 2.133823 -2.444150 6.035995 -0.413304 4.875398 -18.560629 1.602257 5.430828 17.021407 -2.734800 2.027800 15.884700 6.081532 -1.292777 -0.031197 -71.856307 -21.194357 52.406452 64.544335 -57.367418 -39.071722 -0.874942 0.383774 -16.279322 37.458114 -22.054542 -16.820300 -7.125000 0.000000 0.000000 5.621900 2.190500 -5.429400 -3.973081 2.508708 2.450124 71.483880 -45.095987 69.138592 -47.096692 52.948877 -20.120948 1.005469 -1.843902 -30.410941 -32.559831 -34.839010 18.843700 7.125000 0.000000 0.000000 -0.822500 -66.875700 0.433400 
